<svg width="45" height="45" viewBox="0 0 45 45" fill="none" xmlns="http://www.w3.org/2000/svg">
<path d="M35.0968 11.5H9.90315C8.76001 11.5 7.83331 12.4267 7.83331 13.5698V28.1705C7.83331 29.3136 8.76001 30.2403 9.90315 30.2403H35.0968C36.24 30.2403 37.1666 29.3136 37.1666 28.1705V13.5698C37.1666 12.4267 36.24 11.5 35.0968 11.5Z" fill="white"/>
<path d="M16.9578 34.5598L17.3245 29.5694C17.3435 29.3084 17.4608 29.0643 17.6526 28.8864C17.8445 28.7085 18.0968 28.6099 18.3585 28.6106H24.9768C25.9815 28.6106 26.3958 29.9031 25.5763 30.4879L18.5913 35.4764C18.4315 35.5904 18.2425 35.6565 18.0465 35.6671C17.8505 35.6777 17.6556 35.6322 17.4845 35.5361C17.3133 35.4399 17.1731 35.2971 17.0802 35.1242C16.9872 34.9513 16.9436 34.7555 16.9578 34.5598Z" fill="white"/>
</svg>
