<svg width="40" height="41" viewBox="0 0 40 41" fill="none" xmlns="http://www.w3.org/2000/svg">
<path d="M27.6733 14.6933C27.89 15.2766 28.0033 15.8916 28.0117 16.5116C28.0667 17.5483 28.0667 17.8633 28.0667 20.4883C28.0667 23.1116 28.06 23.4266 28.0117 24.4633C28.0032 25.0842 27.8888 25.6992 27.6733 26.2816C27.5095 26.7057 27.2589 27.0908 26.9374 27.4123C26.6159 27.7338 26.2308 27.9845 25.8067 28.1483C25.2233 28.3649 24.6083 28.4783 23.9883 28.4883C22.9517 28.5416 22.6367 28.5416 20.0117 28.5416C17.3883 28.5416 17.0733 28.5366 16.0367 28.4883C15.4156 28.4793 14.8007 28.3643 14.2183 28.1483C13.7942 27.9845 13.4091 27.7338 13.0876 27.4123C12.7661 27.0908 12.5154 26.7057 12.3517 26.2816C12.1358 25.6998 12.0208 25.0854 12.0117 24.4649C11.9583 23.4266 11.9583 23.1116 11.9583 20.4883C11.9583 17.8633 11.9633 17.5483 12.0117 16.5116C12.0217 15.8916 12.135 15.2766 12.3517 14.6949C12.5154 14.2708 12.7661 13.8857 13.0876 13.5642C13.4091 13.2427 13.7942 12.992 14.2183 12.8283C14.8017 12.6116 15.415 12.4966 16.035 12.4883C17.0733 12.4333 17.3883 12.4333 20.0117 12.4333C22.6367 12.4333 22.9517 12.4399 23.9883 12.4883C24.6083 12.4966 25.2233 12.6116 25.805 12.8266C26.6633 13.1599 27.3433 13.8366 27.6733 14.6933ZM20 25.5549C20.6638 25.5549 21.3212 25.4242 21.9345 25.1701C22.5478 24.9161 23.105 24.5437 23.5744 24.0743C24.0438 23.6049 24.4162 23.0477 24.6702 22.4344C24.9242 21.8211 25.055 21.1637 25.055 20.4999C25.055 19.8361 24.9242 19.1788 24.6702 18.5655C24.4162 17.9522 24.0438 17.3949 23.5744 16.9255C23.105 16.4561 22.5478 16.0837 21.9345 15.8297C21.3212 15.5757 20.6638 15.4449 20 15.4449C18.6593 15.4449 17.3736 15.9775 16.4256 16.9255C15.4776 17.8735 14.945 19.1592 14.945 20.4999C14.945 21.8406 15.4776 23.1263 16.4256 24.0743C17.3736 25.0223 18.6593 25.5549 20 25.5549ZM25.255 16.4266C25.4155 16.4351 25.576 16.4109 25.7268 16.3553C25.8775 16.2998 26.0154 16.2141 26.132 16.1036C26.2486 15.993 26.3415 15.8599 26.4049 15.7122C26.4684 15.5646 26.5011 15.4056 26.5011 15.2449C26.5011 15.0842 26.4684 14.9252 26.4049 14.7776C26.3415 14.63 26.2486 14.4968 26.132 14.3863C26.0154 14.2757 25.8775 14.19 25.7268 14.1345C25.576 14.079 25.4155 14.0547 25.255 14.0633C24.9525 14.0793 24.6676 14.2108 24.4591 14.4307C24.2507 14.6505 24.1344 14.9419 24.1344 15.2449C24.1344 15.5479 24.2507 15.8393 24.4591 16.0592C24.6676 16.279 24.9525 16.4105 25.255 16.4266ZM20 23.7783C19.1305 23.7783 18.2967 23.4329 17.6819 22.818C17.0671 22.2032 16.7217 21.3694 16.7217 20.4999C16.7217 19.6305 17.0671 18.7966 17.6819 18.1818C18.2967 17.567 19.1305 17.2216 20 17.2216C20.8695 17.2216 21.7033 17.567 22.3181 18.1818C22.9329 18.7966 23.2783 19.6305 23.2783 20.4999C23.2783 21.3694 22.9329 22.2032 22.3181 22.818C21.7033 23.4329 20.8695 23.7783 20 23.7783ZM20 3.83325C10.795 3.83325 3.33333 11.2949 3.33333 20.4999C3.33333 29.7049 10.795 37.1666 20 37.1666C29.205 37.1666 36.6667 29.7049 36.6667 20.4999C36.6667 18.3112 36.2356 16.144 35.398 14.1219C34.5604 12.0998 33.3328 10.2624 31.7851 8.71481C30.2375 7.16716 28.4001 5.9395 26.3781 5.10193C24.356 4.26435 22.1887 3.83325 20 3.83325ZM29.7833 24.5549C29.7667 25.3716 29.6133 26.1783 29.3267 26.9416C29.0741 27.5957 28.6876 28.1899 28.1919 28.6859C27.6963 29.1818 27.1023 29.5687 26.4483 29.8216C25.6835 30.1065 24.876 30.2598 24.06 30.2749C23.0117 30.3249 22.6783 30.3366 20.0067 30.3366C17.3333 30.3366 16.975 30.3366 15.9517 30.2749C15.1357 30.2598 14.3281 30.1065 13.5633 29.8216C12.9093 29.5687 12.3154 29.1818 11.8197 28.6859C11.324 28.1899 10.9375 27.5957 10.685 26.9416C10.3997 26.1774 10.2459 25.3705 10.23 24.5549C10.1817 23.5049 10.17 23.1716 10.17 20.4999C10.17 17.8266 10.17 17.4699 10.23 16.4449C10.2467 15.6283 10.4 14.8216 10.685 14.0583C10.9375 13.4041 11.324 12.81 11.8197 12.314C12.3154 11.818 12.9093 11.4312 13.5633 11.1783C14.3281 10.8933 15.1357 10.7401 15.9517 10.7249C17 10.6749 17.3333 10.6633 20.0067 10.6633C22.6783 10.6633 23.0367 10.6633 24.06 10.7249C24.8767 10.7399 25.6833 10.8933 26.4483 11.1783C27.7717 11.6899 28.815 12.7349 29.3267 14.0583C29.6133 14.8216 29.7667 15.6299 29.7817 16.4449C29.8317 17.4949 29.8417 17.8283 29.8417 20.4999C29.8417 23.1733 29.83 23.5066 29.7817 24.5549H29.7833Z" fill="white"/>
</svg>
