<svg width="40" height="41" viewBox="0 0 40 41" fill="none" xmlns="http://www.w3.org/2000/svg">
<g clip-path="url(#clip0_1_51)">
<path fill-rule="evenodd" clip-rule="evenodd" d="M36.6667 20.4999C36.6667 11.2933 29.205 3.83325 20 3.83325C10.7967 3.83325 3.33333 11.2966 3.33333 20.4999C3.33333 29.7049 10.7967 37.1666 20 37.1666C29.205 37.1666 36.6667 29.7049 36.6667 20.4999ZM28.21 10.4999H11.4517C10.6517 10.4999 10 11.1333 10 11.9166V28.7466C10 29.5299 10.65 30.1666 11.4517 30.1666H28.2117C28.5927 30.1706 28.9598 30.0234 29.2326 29.7572C29.5053 29.4911 29.6614 29.1276 29.6667 28.7466V11.9166C29.661 11.5357 29.5044 11.1726 29.2313 10.907C28.9582 10.6414 28.5909 10.495 28.21 10.4999ZM14.3767 13.2016C14.5988 13.2019 14.8187 13.246 15.0239 13.3313C15.229 13.4166 15.4153 13.5415 15.5721 13.6988C15.729 13.8561 15.8533 14.0428 15.938 14.2482C16.0227 14.4536 16.0662 14.6736 16.0658 14.8958C16.0655 15.1179 16.0214 15.3378 15.9361 15.5429C15.8508 15.7481 15.7259 15.9344 15.5686 16.0912C15.4113 16.2481 15.2246 16.3724 15.0192 16.4571C14.8139 16.5418 14.5938 16.5852 14.3717 16.5849C14.1495 16.5847 13.9296 16.5407 13.7244 16.4555C13.5193 16.3703 13.3329 16.2455 13.176 16.0883C13.019 15.931 12.8946 15.7444 12.8098 15.5391C12.725 15.3338 12.6814 15.1137 12.6817 14.8916C12.6819 14.6694 12.7259 14.4495 12.8111 14.2443C12.8963 14.0392 13.0211 13.8528 13.1783 13.6959C13.3356 13.539 13.5222 13.4145 13.7275 13.3297C13.9328 13.2449 14.1528 13.2014 14.375 13.2016H14.3767ZM12.9167 17.8733H15.8383V27.2566H12.9167V17.8733ZM17.6667 17.8733H17.6633L17.6667 17.8699V17.8733ZM17.6667 17.8733H20.4617V19.1566H20.5C20.8883 18.4183 21.84 17.6399 23.2667 17.6399C26.2183 17.6399 26.7633 19.5833 26.7633 22.1099V27.2583H23.85V22.6916C23.85 21.6049 23.8317 20.2033 22.335 20.2033C20.8183 20.2033 20.585 21.3899 20.585 22.6133V27.2549H17.6667V17.8733Z" fill="white"/>
</g>
<defs>
<clipPath id="clip0_1_51">
<rect width="40" height="40" fill="white" transform="translate(0 0.5)"/>
</clipPath>
</defs>
</svg>
