<svg width="40" height="41" viewBox="0 0 40 41" fill="none" xmlns="http://www.w3.org/2000/svg">
<g clip-path="url(#clip0_1_54)">
<path d="M36.6667 20.4999C36.6667 11.2933 29.205 3.83325 20 3.83325C10.7967 3.83325 3.33333 11.2966 3.33333 20.4999C3.33333 29.7049 10.7967 37.1666 20 37.1666C29.205 37.1666 36.6667 29.7049 36.6667 20.4999ZM30.3417 14.6399C29.7917 15.4599 29.0933 16.1833 28.2917 16.7583L28.305 17.2899C28.305 22.7149 24.1767 28.9649 16.6283 28.9649C14.3986 28.9664 12.2155 28.3258 10.34 27.1199C11.4145 27.25 12.5042 27.167 13.5466 26.8756C14.589 26.5842 15.5637 26.0901 16.415 25.4216C15.5588 25.4051 14.7291 25.1216 14.0418 24.6106C13.3545 24.0997 12.8441 23.3868 12.5817 22.5716C13.1967 22.6899 13.8306 22.6659 14.435 22.5016C13.5069 22.3133 12.6723 21.8102 12.0725 21.0774C11.4726 20.3445 11.1444 19.4269 11.1433 18.4799V18.4266C11.6983 18.7349 12.3283 18.9183 13.0017 18.9416C12.1323 18.3622 11.5168 17.4728 11.2808 16.4551C11.0448 15.4373 11.206 14.3678 11.7317 13.4649C12.762 14.7328 14.0475 15.7697 15.5047 16.5082C16.962 17.2467 18.5583 17.6704 20.19 17.7516C19.9824 16.871 20.0716 15.9465 20.4438 15.1219C20.816 14.2973 21.4503 13.6188 22.2481 13.192C23.0458 12.7651 23.9622 12.6139 24.8548 12.7619C25.7473 12.9098 26.566 13.3486 27.1833 14.0099C28.1021 13.8275 28.9834 13.4911 29.79 13.0149C29.483 13.9652 28.8409 14.7714 27.9833 15.2833C28.7966 15.1868 29.5909 14.9694 30.34 14.6383L30.3417 14.6399Z" fill="white"/>
</g>
<defs>
<clipPath id="clip0_1_54">
<rect width="40" height="40" fill="white" transform="translate(0 0.5)"/>
</clipPath>
</defs>
</svg>
